<?xml version="1.0" encoding="UTF-8"?>
<!DOCTYPE svg PUBLIC "-//W3C//DTD SVG 1.1//EN" "http://www.w3.org/Graphics/SVG/1.1/DTD/svg11.dtd">
<svg xmlns="http://www.w3.org/2000/svg" version="1.1" width="500px" height="500px" style="shape-rendering:geometricPrecision; text-rendering:geometricPrecision; image-rendering:optimizeQuality; fill-rule:evenodd; clip-rule:evenodd" xmlns:xlink="http://www.w3.org/1999/xlink">
<g><path style="opacity:1" fill="#15439b" d="M 79.5,176.5 C 81.4286,176.231 83.0953,176.731 84.5,178C 83.3463,178.914 83.513,179.747 85,180.5C 84.9841,184.764 85.8175,188.764 87.5,192.5C 84.8333,193.167 82.1667,193.833 79.5,194.5C 100.5,195.833 121.5,195.833 142.5,194.5C 140.167,193.833 137.833,193.167 135.5,192.5C 136.612,191.735 137.279,190.735 137.5,189.5C 137.5,189.167 137.5,188.833 137.5,188.5C 139.3,187.105 139.634,185.439 138.5,183.5C 135.497,182.915 132.497,182.248 129.5,181.5C 130.802,179.799 132.469,178.632 134.5,178C 133.833,177.667 133.167,177.333 132.5,177C 134.367,176.289 135.867,176.789 137,178.5C 141.967,176.709 147.134,176.042 152.5,176.5C 153.167,176.5 153.833,176.5 154.5,176.5C 156.844,177.803 158.844,179.636 160.5,182C 161.793,182.49 163.127,182.657 164.5,182.5C 164.5,186.833 164.5,191.167 164.5,195.5C 161.72,195.055 159.053,195.055 156.5,195.5C 155.155,194.653 154.155,193.487 153.5,192C 149.461,190.614 145.461,190.114 141.5,190.5C 145.691,191.778 146.358,193.945 143.5,197C 121.761,197.178 100.094,197.678 78.5,198.5C 77.1968,195.645 77.1968,192.645 78.5,189.5C 79.7989,190.09 80.6322,191.09 81,192.5C 81.494,187.001 79.1606,185.334 74,187.5C 71.151,185.045 68.8177,185.712 67,189.5C 66.3333,187.167 66.3333,184.833 67,182.5C 68.3561,181.62 69.8561,181.286 71.5,181.5C 71.5,180.5 71.5,179.5 71.5,178.5C 73.8383,176.96 76.5049,176.294 79.5,176.5 Z M 137.5,188.5 C 137.5,188.833 137.5,189.167 137.5,189.5C 136.527,189.987 135.527,190.487 134.5,191C 121.833,191.667 109.167,191.667 96.5,191C 93.3246,189.423 92.9912,187.59 95.5,185.5C 108.821,184.334 122.154,184.167 135.5,185C 136.823,185.816 137.489,186.983 137.5,188.5 Z"/></g>
<g><path style="opacity:1" fill="#214799" d="M 152.5,176.5 C 147.134,176.042 141.967,176.709 137,178.5C 135.867,176.789 134.367,176.289 132.5,177C 133.167,177.333 133.833,177.667 134.5,178C 132.469,178.632 130.802,179.799 129.5,181.5C 132.497,182.248 135.497,182.915 138.5,183.5C 139.634,185.439 139.3,187.105 137.5,188.5C 137.489,186.983 136.823,185.816 135.5,185C 122.154,184.167 108.821,184.334 95.5,185.5C 92.9912,187.59 93.3246,189.423 96.5,191C 109.167,191.667 121.833,191.667 134.5,191C 135.527,190.487 136.527,189.987 137.5,189.5C 137.279,190.735 136.612,191.735 135.5,192.5C 137.833,193.167 140.167,193.833 142.5,194.5C 121.5,195.833 100.5,195.833 79.5,194.5C 82.1667,193.833 84.8333,193.167 87.5,192.5C 85.8175,188.764 84.9841,184.764 85,180.5C 83.513,179.747 83.3463,178.914 84.5,178C 83.0953,176.731 81.4286,176.231 79.5,176.5C 103.846,171.201 128.179,171.201 152.5,176.5 Z"/></g>
<g><path style="opacity:1" fill="#2c4c9d" d="M 154.5,176.5 C 160.218,176.774 164.385,179.441 167,184.5C 167.499,190.157 167.666,195.824 167.5,201.5C 170.187,201.336 172.854,201.503 175.5,202C 177.259,203.008 178.426,204.508 179,206.5C 179.667,212.167 179.667,217.833 179,223.5C 178.502,225.544 177.335,226.878 175.5,227.5C 172.833,227.5 170.167,227.5 167.5,227.5C 167.5,242.5 167.5,257.5 167.5,272.5C 167.851,275.812 166.518,278.145 163.5,279.5C 162.737,278.732 161.737,278.232 160.5,278C 161.793,277.51 163.127,277.343 164.5,277.5C 164.5,276.167 164.5,274.833 164.5,273.5C 162.856,273.286 161.356,273.62 160,274.5C 159.667,272.066 160.834,271.066 163.5,271.5C 163.333,260.162 163.5,248.828 164,237.5C 165.018,238.706 165.518,238.373 165.5,236.5C 163.309,232.446 161.976,228.113 161.5,223.5C 160.5,223.5 159.5,223.5 158.5,223.5C 158.5,226.167 158.5,228.833 158.5,231.5C 159.5,231.5 160.5,231.5 161.5,231.5C 161.657,232.873 161.49,234.207 161,235.5C 157.911,237.608 157.744,239.941 160.5,242.5C 160.333,243.167 160.167,243.833 160,244.5C 154.098,246.378 154.265,247.711 160.5,248.5C 160.5,250.833 160.5,253.167 160.5,255.5C 159.5,255.5 158.5,255.5 157.5,255.5C 157.203,259.767 157.536,263.934 158.5,268C 158,268.5 157.5,269 157,269.5C 154.959,268.577 152.792,268.244 150.5,268.5C 157.931,264.141 158.265,259.141 151.5,253.5C 153.199,253.66 154.866,253.494 156.5,253C 154.842,251.337 152.842,250.504 150.5,250.5C 150.67,249.178 150.337,248.011 149.5,247C 147.14,245.82 144.807,244.653 142.5,243.5C 132.518,242.147 122.184,241.48 111.5,241.5C 105.31,241.553 99.143,241.886 93,242.5C 91.6244,242.316 90.7911,241.649 90.5,240.5C 112.51,240.833 134.51,240.5 156.5,239.5C 157.309,237.929 157.643,236.262 157.5,234.5C 157.666,224.494 157.5,214.494 157,204.5C 156.727,202.671 155.893,201.171 154.5,200C 129.169,199.5 103.836,199.333 78.5,199.5C 78.5,199.167 78.5,198.833 78.5,198.5C 100.094,197.678 121.761,197.178 143.5,197C 146.358,193.945 145.691,191.778 141.5,190.5C 145.461,190.114 149.461,190.614 153.5,192C 154.155,193.487 155.155,194.653 156.5,195.5C 159.053,195.055 161.72,195.055 164.5,195.5C 164.5,191.167 164.5,186.833 164.5,182.5C 163.127,182.657 161.793,182.49 160.5,182C 158.844,179.636 156.844,177.803 154.5,176.5 Z"/></g>
<g><path style="opacity:0.048" fill="#b4bbe3" d="M 431.5,206.5 C 432.167,214.167 432.833,221.833 433.5,229.5C 433.217,230.289 432.717,230.956 432,231.5C 431.5,223.173 431.334,214.84 431.5,206.5 Z"/></g>
<g><path style="opacity:1" fill="#214495" d="M 305.5,250.5 C 306.117,250.389 306.617,250.056 307,249.5C 307.167,245 307.333,240.5 307.5,236C 307.493,231.114 306.826,226.614 305.5,222.5C 305.434,220.917 305.767,219.25 306.5,217.5C 302.627,215.57 298.294,214.903 293.5,215.5C 293.5,212.5 293.5,209.5 293.5,206.5C 305.505,206.333 317.505,206.5 329.5,207C 330.833,210 330.833,213 329.5,216C 325.179,216.499 320.846,216.666 316.5,216.5C 316.5,228.833 316.5,241.167 316.5,253.5C 312.833,253.5 309.167,253.5 305.5,253.5C 305.5,252.5 305.5,251.5 305.5,250.5 Z"/></g>
<g><path style="opacity:0.078" fill="#cbe3fb" d="M 293.5,215.5 C 298.294,214.903 302.627,215.57 306.5,217.5C 302.063,216.887 297.73,216.22 293.5,215.5 Z"/></g>
<g><path style="opacity:0.573" fill="#5c9ac6" d="M 305.5,222.5 C 306.826,226.614 307.493,231.114 307.5,236C 307.333,240.5 307.167,245 307,249.5C 306.617,250.056 306.117,250.389 305.5,250.5C 306.516,241.342 306.516,232.008 305.5,222.5 Z"/></g>
<g><path style="opacity:0.996" fill="#204498" d="M 381.5,227.5 C 381.5,236.167 381.5,244.833 381.5,253.5C 377.97,254.011 374.804,253.344 372,251.5C 365.151,255.667 358.484,255.334 352,250.5C 349.375,244.39 350.542,239.223 355.5,235C 361.138,233.674 366.805,232.507 372.5,231.5C 368.5,226.167 364.5,226.167 360.5,231.5C 357.363,230.874 354.363,229.874 351.5,228.5C 355.616,220.281 362.283,217.114 371.5,219C 376.228,220.231 379.561,223.064 381.5,227.5 Z M 370.5,238.5 C 373.094,240.729 372.76,242.895 369.5,245C 368,245.5 366.5,246 365,246.5C 363.56,245.852 362.06,245.519 360.5,245.5C 360.286,243.856 360.62,242.356 361.5,241C 364.579,240.027 367.579,239.194 370.5,238.5 Z"/></g>
<g><path style="opacity:0.996" fill="#334f9d" d="M 343.5,218.5 C 348.551,217.982 350.217,219.982 348.5,224.5C 348.709,225.994 349.376,227.161 350.5,228C 346.479,228.803 342.646,229.969 339,231.5C 337.571,238.719 337.071,246.053 337.5,253.5C 334.167,253.5 330.833,253.5 327.5,253.5C 327.5,242.167 327.5,230.833 327.5,219.5C 331.434,219.021 335.101,219.688 338.5,221.5C 340.145,220.304 341.811,219.304 343.5,218.5 Z"/></g>
<g><path style="opacity:0.999" fill="#234497" d="M 431.5,206.5 C 431.334,214.84 431.5,223.173 432,231.5C 432.717,230.956 433.217,230.289 433.5,229.5C 435.934,226.303 438.601,223.303 441.5,220.5C 445.5,219.167 449.5,219.167 453.5,220.5C 449.686,225.149 445.686,229.649 441.5,234C 445.71,240.254 450.044,246.421 454.5,252.5C 450.541,253.66 446.541,253.827 442.5,253C 439.333,248.833 436.167,244.667 433,240.5C 432.501,244.821 432.334,249.154 432.5,253.5C 429.15,253.665 425.817,253.498 422.5,253C 422.043,252.586 421.709,252.086 421.5,251.5C 422.484,236.548 422.817,221.548 422.5,206.5C 425.5,206.5 428.5,206.5 431.5,206.5 Z"/></g>
<g><path style="opacity:1" fill="#294898" d="M 277.5,239.5 C 270.262,235.045 268.928,229.212 273.5,222C 280.433,217.401 287.433,217.401 294.5,222C 295.804,222.804 296.471,223.971 296.5,225.5C 294.863,227.749 292.696,229.415 290,230.5C 287.103,227.769 283.603,226.769 279.5,227.5C 279.5,228.5 279.5,229.5 279.5,230.5C 286.104,231.102 291.771,233.602 296.5,238C 299.096,243.902 297.762,248.902 292.5,253C 283.994,255.989 276.494,254.489 270,248.5C 270.46,244.863 272.626,242.529 276.5,241.5C 279.187,245.314 282.853,246.48 287.5,245C 287.957,244.586 288.291,244.086 288.5,243.5C 285.241,241.1 281.574,239.767 277.5,239.5 Z"/></g>
<g><path style="opacity:1" fill="#2a4999" d="M 399.5,218.5 C 408.577,217.537 415.244,221.037 419.5,229C 416.978,230.843 414.145,232.01 411,232.5C 408.917,230.258 406.417,228.592 403.5,227.5C 397.601,229.354 395.101,233.354 396,239.5C 400.465,247.075 405.465,247.408 411,240.5C 420.432,243.73 420.598,247.897 411.5,253C 396.611,256.721 387.611,251.054 384.5,236C 386.182,227.162 391.182,221.329 399.5,218.5 Z"/></g>
<g><path style="opacity:0.477" fill="#6b80af" d="M 175.5,227.5 C 173.393,228.468 171.059,228.802 168.5,228.5C 168.829,243.343 168.496,258.01 167.5,272.5C 167.5,257.5 167.5,242.5 167.5,227.5C 170.167,227.5 172.833,227.5 175.5,227.5 Z"/></g>
<g><path style="opacity:1" fill="#22469a" d="M 196.5,206.5 C 204.507,206.334 212.507,206.5 220.5,207C 230.307,212.312 231.974,219.479 225.5,228.5C 232,234.107 233.166,240.774 229,248.5C 227.442,250.359 225.609,251.859 223.5,253C 214.506,253.5 205.506,253.666 196.5,253.5C 196.5,237.833 196.5,222.167 196.5,206.5 Z M 217.5,234.5 C 221.209,236.544 221.876,239.211 219.5,242.5C 215.345,244.185 211.012,244.851 206.5,244.5C 206.5,241.167 206.5,237.833 206.5,234.5C 210.167,234.5 213.833,234.5 217.5,234.5 Z M 206.5,216.5 C 209.85,216.335 213.183,216.502 216.5,217C 220.632,220.262 220.298,222.929 215.5,225C 207.505,227.506 204.505,224.672 206.5,216.5 Z"/></g>
<g><path style="opacity:0.067" fill="#99a8d5" d="M 217.5,234.5 C 213.833,234.5 210.167,234.5 206.5,234.5C 206.5,237.833 206.5,241.167 206.5,244.5C 205.518,241.038 205.185,237.371 205.5,233.5C 209.702,233.183 213.702,233.517 217.5,234.5 Z"/></g>
<g><path style="opacity:0.114" fill="#4e69a6" d="M 157.5,234.5 C 157.643,236.262 157.309,237.929 156.5,239.5C 134.51,240.5 112.51,240.833 90.5,240.5C 85.9677,240.818 81.6344,240.485 77.5,239.5C 103.169,239.667 128.835,239.5 154.5,239C 155.399,237.348 156.399,235.848 157.5,234.5 Z"/></g>
<g><path style="opacity:0.004" fill="#fefffe" d="M 277.5,239.5 C 276.833,240.167 276.833,240.167 277.5,239.5 Z"/></g>
<g><path style="opacity:0.141" fill="#becbed" d="M 381.5,227.5 C 382.533,228.912 383.199,230.578 383.5,232.5C 383.319,238.797 383.152,245.464 383,252.5C 382.617,253.056 382.117,253.389 381.5,253.5C 381.5,244.833 381.5,236.167 381.5,227.5 Z"/></g>
<g><path style="opacity:0.999" fill="#21479a" d="M 71.5,178.5 C 71.5,179.5 71.5,180.5 71.5,181.5C 69.8561,181.286 68.3561,181.62 67,182.5C 66.3333,184.833 66.3333,187.167 67,189.5C 68.8177,185.712 71.151,185.045 74,187.5C 79.1606,185.334 81.494,187.001 81,192.5C 80.6322,191.09 79.7989,190.09 78.5,189.5C 77.1968,192.645 77.1968,195.645 78.5,198.5C 78.5,198.833 78.5,199.167 78.5,199.5C 76.8868,199.944 75.7202,200.944 75,202.5C 74.3333,214.167 74.3333,225.833 75,237.5C 75.7083,238.381 76.5416,239.047 77.5,239.5C 81.6344,240.485 85.9677,240.818 90.5,240.5C 90.7911,241.649 91.6244,242.316 93,242.5C 99.143,241.886 105.31,241.553 111.5,241.5C 122.184,241.48 132.518,242.147 142.5,243.5C 140.777,244.8 138.61,245.467 136,245.5C 122.13,244.941 108.297,244.274 94.5,243.5C 92.2674,243.864 90.434,244.864 89,246.5C 84.0469,244.956 79.3802,245.622 75,248.5C 74.6667,248.167 74.3333,247.833 74,247.5C 73.5581,249.679 72.5581,250.345 71,249.5C 70.5172,250.448 70.3505,251.448 70.5,252.5C 68.6693,253.052 67.0026,253.052 65.5,252.5C 64.3356,259.476 64.1689,266.476 65,273.5C 65.9324,271.234 67.2658,269.234 69,267.5C 69.5426,264.83 69.0426,262.33 67.5,260C 67.8777,258.365 68.5444,256.865 69.5,255.5C 70.086,255.709 70.586,256.043 71,256.5C 71.3333,258.5 71.6667,260.5 72,262.5C 72.4268,258.958 73.5934,255.792 75.5,253C 80.7952,251.392 86.1286,251.225 91.5,252.5C 92.4709,253.962 92.1376,255.295 90.5,256.5C 90.8216,259.976 91.8216,263.142 93.5,266C 89.3865,267.302 85.3865,268.802 81.5,270.5C 79.5466,269.844 77.5466,269.511 75.5,269.5C 75.5,268.167 75.5,266.833 75.5,265.5C 74.448,265.351 73.448,265.517 72.5,266C 73.5674,268.098 74.0674,270.265 74,272.5C 73.6667,272.833 73.3333,273.167 73,273.5C 72.3109,272.643 71.4776,271.977 70.5,271.5C 69.6461,272.948 68.6461,274.281 67.5,275.5C 67.7093,276.086 68.0426,276.586 68.5,277C 70.8098,277.497 73.1432,277.663 75.5,277.5C 75.6495,278.552 75.4828,279.552 75,280.5C 74.6667,280.167 74.3333,279.833 74,279.5C 73.5017,282.817 73.335,286.15 73.5,289.5C 75.6682,290.179 77.6682,291.179 79.5,292.5C 81.4405,292.196 83.1072,291.363 84.5,290C 83.376,289.751 82.376,289.251 81.5,288.5C 82.6113,287.389 83.278,286.055 83.5,284.5C 80.5442,280.103 81.0442,276.103 85,272.5C 86.1137,275.291 86.2803,278.291 85.5,281.5C 86.8333,281.5 88.1667,281.5 89.5,281.5C 90.7744,296.071 84.9411,300.071 72,293.5C 71.501,289.179 71.3343,284.846 71.5,280.5C 67.348,279.854 64.5146,277.521 63,273.5C 62.5001,258.504 62.3334,243.504 62.5,228.5C 60.1432,228.663 57.8098,228.497 55.5,228C 54.572,227.612 53.9054,226.945 53.5,226C 52.3884,219.205 52.2217,212.371 53,205.5C 53.5,203.667 54.6667,202.5 56.5,202C 59.146,201.503 61.8127,201.336 64.5,201.5C 64.3338,195.491 64.5005,189.491 65,183.5C 66.1585,180.507 68.3252,178.84 71.5,178.5 Z M 75.5,265.5 C 73.5302,259.295 75.6968,255.295 82,253.5C 89.4085,256.133 90.9085,260.633 86.5,267C 82.5047,268.947 78.8381,268.447 75.5,265.5 Z"/></g>
<g><path style="opacity:1" fill="#254699" d="M 243.5,218.5 C 244.695,218.866 245.361,219.699 245.5,221C 245.593,225.127 245.259,229.46 244.5,234C 245.204,237.128 245.704,240.294 246,243.5C 249.955,246.412 253.288,245.745 256,241.5C 256.5,234.174 256.666,226.841 256.5,219.5C 259.833,219.5 263.167,219.5 266.5,219.5C 266.5,230.833 266.5,242.167 266.5,253.5C 262.649,254.029 259.149,253.362 256,251.5C 252.322,254.238 248.156,255.071 243.5,254C 240.375,253.021 237.875,251.187 236,248.5C 235.807,239.119 235.307,229.786 234.5,220.5C 237.642,219.833 240.642,219.166 243.5,218.5 Z"/></g>
<g><path style="opacity:1" fill="#17459c" d="M 163.5,279.5 C 162.292,280.234 160.959,280.567 159.5,280.5C 159.666,284.514 159.499,288.514 159,292.5C 155.39,297.749 150.89,298.915 145.5,296C 141.176,292.2 139.51,287.367 140.5,281.5C 123.656,281.951 106.656,281.951 89.5,281.5C 88.1667,281.5 86.8333,281.5 85.5,281.5C 86.2803,278.291 86.1137,275.291 85,272.5C 81.0442,276.103 80.5442,280.103 83.5,284.5C 83.278,286.055 82.6113,287.389 81.5,288.5C 82.376,289.251 83.376,289.751 84.5,290C 83.1072,291.363 81.4405,292.196 79.5,292.5C 77.6682,291.179 75.6682,290.179 73.5,289.5C 73.335,286.15 73.5017,282.817 74,279.5C 74.3333,279.833 74.6667,280.167 75,280.5C 75.4828,279.552 75.6495,278.552 75.5,277.5C 73.1432,277.663 70.8098,277.497 68.5,277C 68.0426,276.586 67.7093,276.086 67.5,275.5C 68.6461,274.281 69.6461,272.948 70.5,271.5C 71.4776,271.977 72.3109,272.643 73,273.5C 73.3333,273.167 73.6667,272.833 74,272.5C 74.0674,270.265 73.5674,268.098 72.5,266C 73.448,265.517 74.448,265.351 75.5,265.5C 75.5,266.833 75.5,268.167 75.5,269.5C 77.5466,269.511 79.5466,269.844 81.5,270.5C 85.3865,268.802 89.3865,267.302 93.5,266C 91.8216,263.142 90.8216,259.976 90.5,256.5C 92.1376,255.295 92.4709,253.962 91.5,252.5C 86.1286,251.225 80.7952,251.392 75.5,253C 73.5934,255.792 72.4268,258.958 72,262.5C 71.6667,260.5 71.3333,258.5 71,256.5C 70.586,256.043 70.086,255.709 69.5,255.5C 68.5444,256.865 67.8777,258.365 67.5,260C 69.0426,262.33 69.5426,264.83 69,267.5C 67.2658,269.234 65.9324,271.234 65,273.5C 64.1689,266.476 64.3356,259.476 65.5,252.5C 67.0026,253.052 68.6693,253.052 70.5,252.5C 70.3505,251.448 70.5172,250.448 71,249.5C 72.5581,250.345 73.5581,249.679 74,247.5C 74.3333,247.833 74.6667,248.167 75,248.5C 79.3802,245.622 84.0469,244.956 89,246.5C 90.434,244.864 92.2674,243.864 94.5,243.5C 108.297,244.274 122.13,244.941 136,245.5C 138.61,245.467 140.777,244.8 142.5,243.5C 144.807,244.653 147.14,245.82 149.5,247C 150.337,248.011 150.67,249.178 150.5,250.5C 152.842,250.504 154.842,251.337 156.5,253C 154.866,253.494 153.199,253.66 151.5,253.5C 146.155,253.337 142.821,255.837 141.5,261C 142.205,266.202 145.205,268.702 150.5,268.5C 152.792,268.244 154.959,268.577 157,269.5C 157.5,269 158,268.5 158.5,268C 157.536,263.934 157.203,259.767 157.5,255.5C 158.5,255.5 159.5,255.5 160.5,255.5C 160.5,253.167 160.5,250.833 160.5,248.5C 154.265,247.711 154.098,246.378 160,244.5C 160.167,243.833 160.333,243.167 160.5,242.5C 157.744,239.941 157.911,237.608 161,235.5C 161.49,234.207 161.657,232.873 161.5,231.5C 160.5,231.5 159.5,231.5 158.5,231.5C 158.5,228.833 158.5,226.167 158.5,223.5C 159.5,223.5 160.5,223.5 161.5,223.5C 161.976,228.113 163.309,232.446 165.5,236.5C 165.518,238.373 165.018,238.706 164,237.5C 163.5,248.828 163.333,260.162 163.5,271.5C 160.834,271.066 159.667,272.066 160,274.5C 161.356,273.62 162.856,273.286 164.5,273.5C 164.5,274.833 164.5,276.167 164.5,277.5C 163.127,277.343 161.793,277.51 160.5,278C 161.737,278.232 162.737,278.732 163.5,279.5 Z M 75.5,265.5 C 78.8381,268.447 82.5047,268.947 86.5,267C 90.9085,260.633 89.4085,256.133 82,253.5C 75.6968,255.295 73.5302,259.295 75.5,265.5 Z M 151.5,253.5 C 158.265,259.141 157.931,264.141 150.5,268.5C 145.205,268.702 142.205,266.202 141.5,261C 142.821,255.837 146.155,253.337 151.5,253.5 Z"/></g>
<g><path style="opacity:1" fill="#26489a" d="M 309.5,291.5 C 308.299,287.746 307.632,284.079 307.5,280.5C 306.232,279.572 304.899,279.405 303.5,280C 305.363,281.418 305.863,283.251 305,285.5C 304.29,286.973 303.124,287.64 301.5,287.5C 301.719,288.675 301.386,289.675 300.5,290.5C 298.483,291.174 296.817,292.341 295.5,294C 294.207,294.49 292.873,294.657 291.5,294.5C 298.023,291.775 299.857,287.108 297,280.5C 290.242,275.796 285.408,277.296 282.5,285C 282.782,289.769 285.115,292.936 289.5,294.5C 287.612,295.275 285.612,295.275 283.5,294.5C 283.617,296.484 282.95,298.15 281.5,299.5C 281.931,300.293 282.265,301.127 282.5,302C 280.799,303.86 279.799,306.027 279.5,308.5C 274.459,301.89 271.459,294.39 270.5,286C 271.265,273.402 277.932,266.569 290.5,265.5C 302.87,266.702 309.87,273.535 311.5,286C 311.046,288.03 310.38,289.863 309.5,291.5 Z M 291.5,294.5 C 290.833,294.5 290.167,294.5 289.5,294.5C 285.115,292.936 282.782,289.769 282.5,285C 285.408,277.296 290.242,275.796 297,280.5C 299.857,287.108 298.023,291.775 291.5,294.5 Z"/></g>
<g><path style="opacity:1" fill="#1a449b" d="M 309.5,291.5 C 306.867,303.436 300.7,313.102 291,320.5C 286.047,317.614 282.214,313.614 279.5,308.5C 279.799,306.027 280.799,303.86 282.5,302C 282.265,301.127 281.931,300.293 281.5,299.5C 282.95,298.15 283.617,296.484 283.5,294.5C 285.612,295.275 287.612,295.275 289.5,294.5C 290.167,294.5 290.833,294.5 291.5,294.5C 292.873,294.657 294.207,294.49 295.5,294C 296.817,292.341 298.483,291.174 300.5,290.5C 301.386,289.675 301.719,288.675 301.5,287.5C 303.124,287.64 304.29,286.973 305,285.5C 305.863,283.251 305.363,281.418 303.5,280C 304.899,279.405 306.232,279.572 307.5,280.5C 307.632,284.079 308.299,287.746 309.5,291.5 Z"/></g>
<g><path style="opacity:0.965" fill="#3e5098" d="M 118.5,294.5 C 124.912,295.493 126.579,298.66 123.5,304C 116.47,303.64 114.803,300.473 118.5,294.5 Z"/></g>
<g><path style="opacity:0.976" fill="#354a9a" d="M 223.5,305.5 C 227.334,306.8 231.168,306.8 235,305.5C 238.736,307.443 239.236,309.943 236.5,313C 233.776,313.27 231.109,313.77 228.5,314.5C 226.253,313.626 223.92,313.292 221.5,313.5C 221.579,312.07 221.246,310.736 220.5,309.5C 221.524,308.148 222.524,306.815 223.5,305.5 Z"/></g>
<g><path style="opacity:0.975" fill="#294393" d="M 130.5,304.5 C 135.442,304.813 140.109,306.147 144.5,308.5C 146.05,311.793 145.05,313.793 141.5,314.5C 137.634,313.787 133.968,312.62 130.5,311C 129.232,308.837 129.232,306.67 130.5,304.5 Z"/></g>
<g><path style="opacity:0.973" fill="#314994" d="M 247.5,306.5 C 251.734,307.749 256.067,308.582 260.5,309C 263.822,313.528 262.656,315.694 257,315.5C 253.114,315.069 249.28,314.403 245.5,313.5C 245.185,310.789 245.852,308.456 247.5,306.5 Z"/></g>
<g><path style="opacity:0.859" fill="#324592" d="M 152.5,310.5 C 156.516,310.287 160.35,310.954 164,312.5C 165.243,311.664 166.41,311.997 167.5,313.5C 169.185,317.008 168.018,319.008 164,319.5C 160.197,318.539 156.364,317.706 152.5,317C 151.395,314.88 151.395,312.713 152.5,310.5 Z"/></g>
<g><path style="opacity:0.963" fill="#2f4993" d="M 201.5,308.5 C 205.833,308.5 210.167,308.5 214.5,308.5C 214.756,310.792 214.423,312.959 213.5,315C 208.875,316.162 204.208,316.496 199.5,316C 197.257,312.929 197.923,310.429 201.5,308.5 Z"/></g>
<g><path style="opacity:0.961" fill="#2d4492" d="M 182.5,311.5 C 185.187,311.336 187.854,311.503 190.5,312C 193.158,314.386 192.825,316.386 189.5,318C 185.181,318.905 180.848,319.238 176.5,319C 174.675,317.534 174.175,315.701 175,313.5C 177.607,312.877 180.107,312.21 182.5,311.5 Z"/></g>
<g><path style="opacity:0.98" fill="#2b4595" d="M 269.5,312.5 C 274.175,313.669 278.508,315.669 282.5,318.5C 284.588,323.019 283.254,324.852 278.5,324C 275.167,322.333 271.833,320.667 268.5,319C 267.144,316.586 267.478,314.419 269.5,312.5 Z"/></g>
</svg>
